# xmcd CD database file
#
# Track frame offsets:
#	150
#	20716
#	39051
#	57841
#	75890
#	89411
#	106609
#	124242
#	141551
#	158361
#	174936
#	196051
#	214892
#	233320
#	251779
#	266252
#	289788
#	304687
#	322393
#	339418
#
# Disc length: 4787 seconds
#
# Revision: 0
# Processed by: cddbd v1.5.2PL0 Copyright (c) Steve Scherf et al.
# Submitted via: CDex 1.51
#
DISCID=0612b114
DTITLE=The Real Book Play-Along - Volume II
DYEAR=2010
DGENRE=Jazz
TTITLE0=I'll Know
TTITLE1=I'm A Fool To Want You
TTITLE2=I'm Confessin' (That I Love You)
TTITLE3=I'm Just A Lucky So And So
TTITLE4=I'm Putting All My Eggs In One Basket
TTITLE5=I've Found A New Baby (I Found A New Baby)
TTITLE6=I've Told Ev'ry Little Star
TTITLE7=If I Loved You
TTITLE8=If I Should Lose You
TTITLE9=If I Were A Bell
TTITLE10=Imagination
TTITLE11=In Walked Bud
TTITLE12=Indiana (Back Home Again In Indiana)
TTITLE13=Infant Eyes
TTITLE14=It Could Happen To You
TTITLE15=It Might As Well Be Spring
TTITLE16=It Will Have To Do Until The Real Thing Comes Along
TTITLE17=It's A Blue World
TTITLE18=It's Only A Paper Moon
TTITLE19=It's So Peaceful In The Country
EXTD=YEAR: 2010
EXTT0=
EXTT1=
EXTT2=
EXTT3=
EXTT4=
EXTT5=
EXTT6=
EXTT7=
EXTT8=
EXTT9=
EXTT10=
EXTT11=
EXTT12=
EXTT13=
EXTT14=
EXTT15=
EXTT16=
EXTT17=
EXTT18=
EXTT19=
PLAYORDER=
